<svg xmlns="http://www.w3.org/2000/svg" width="80" height="23" viewBox="0 0 80 23" fill="none">
  <path fill-rule="evenodd" clip-rule="evenodd" d="M77.5716 22.757C76.8551 22.8542 76.2544 22.9028 75.7697 22.9028C73.7676 22.9028 72.2554 22.4439 71.2333 21.5261C70.2112 20.6082 69.7001 19.2531 69.7001 17.4606V9.91268H66.3175V5.53944H69.7001V1.1338L74.8213 0V5.53944H79.5V9.91268H74.8213V16.4239C74.8213 17.1798 74.9847 17.7143 75.3113 18.0275C75.638 18.3406 76.2123 18.4972 77.0342 18.4972C77.4346 18.4972 77.814 18.4702 78.1723 18.4162C78.5305 18.3622 78.9204 18.2704 79.3419 18.1408V22.3845C78.8783 22.5357 78.2882 22.6599 77.5716 22.757ZM5.62125 10.9493V22.6761H0.5V5.53944H5.62125V6.64084C6.21135 6.16573 6.85941 5.80939 7.56543 5.57183C8.27144 5.33427 9.01434 5.21549 9.79412 5.21549C10.8268 5.21549 11.7699 5.42606 12.6234 5.84718C13.477 6.26831 14.1883 6.84601 14.7573 7.58028C15.4317 6.82441 16.2326 6.24131 17.1599 5.83099C18.0872 5.42066 19.0988 5.21549 20.1947 5.21549C22.0914 5.21549 23.6457 5.86338 24.8575 7.15915C26.0694 8.45493 26.6753 10.107 26.6753 12.1155V22.6761H21.554V12.8282C21.554 11.8995 21.3064 11.1491 20.8111 10.5768C20.3159 10.0045 19.6573 9.71831 18.8353 9.71831C18.2663 9.71831 17.75 9.83169 17.2863 10.0585C16.8227 10.2852 16.4222 10.6038 16.085 11.0141C16.1061 11.1869 16.1219 11.365 16.1325 11.5486C16.143 11.7322 16.1483 11.9211 16.1483 12.1155V22.6761H11.027V12.8282C11.027 11.8995 10.7794 11.1491 10.2841 10.5768C9.78885 10.0045 9.13025 9.71831 8.30832 9.71831C7.7393 9.71831 7.22822 9.82089 6.77511 10.0261C6.322 10.2312 5.93738 10.539 5.62125 10.9493ZM41.8019 22.3845C40.6955 22.7948 39.4468 23 38.0558 23C36.7913 23 35.6006 22.7732 34.4836 22.3197C33.3666 21.8662 32.4024 21.2399 31.591 20.4408C30.7796 19.6418 30.1369 18.6969 29.6627 17.6063C29.1885 16.5157 28.9514 15.3549 28.9514 14.1239C28.9514 12.893 29.1779 11.7322 29.6311 10.6415C30.0842 9.55094 30.7006 8.6061 31.4804 7.80704C32.2602 7.00798 33.1822 6.38169 34.2465 5.92817C35.3108 5.47465 36.4541 5.24789 37.6765 5.24789C38.8988 5.24789 40.0263 5.48545 41.059 5.96056C42.0917 6.43568 42.9821 7.08357 43.7303 7.90423C44.4785 8.72488 45.0633 9.71291 45.4848 10.8683C45.9063 12.0237 46.117 13.2709 46.117 14.6099V15.9056H34.1991C34.5363 16.7047 35.0632 17.358 35.7797 17.8655C36.4963 18.373 37.3393 18.6268 38.3087 18.6268C39.0042 18.6268 39.6365 18.5134 40.2055 18.2866C40.7745 18.0599 41.2592 17.7413 41.6597 17.331L45.0422 20.4085C43.9885 21.3155 42.9084 21.9742 41.8019 22.3845ZM41.0906 12.2451H34.1042C34.3571 11.3812 34.7892 10.7117 35.4004 10.2366C36.0115 9.7615 36.7386 9.52394 37.5816 9.52394C38.4036 9.52394 39.1254 9.7723 39.7471 10.269C40.3688 10.7657 40.8167 11.4244 41.0906 12.2451ZM60.6114 22.3845C59.505 22.7948 58.2563 23 56.8653 23C55.6008 23 54.4101 22.7732 53.2931 22.3197C52.1761 21.8662 51.212 21.2399 50.4006 20.4408C49.5892 19.6418 48.9464 18.6969 48.4722 17.6063C47.998 16.5157 47.7609 15.3549 47.7609 14.1239C47.7609 12.893 47.9875 11.7322 48.4406 10.6415C48.8937 9.55094 49.5101 8.6061 50.2899 7.80704C51.0697 7.00798 51.9917 6.38169 53.056 5.92817C54.1203 5.47465 55.2636 5.24789 56.486 5.24789C57.7084 5.24789 58.8359 5.48545 59.8685 5.96056C60.9012 6.43568 61.7917 7.08357 62.5398 7.90423C63.288 8.72488 63.8728 9.71291 64.2943 10.8683C64.7158 12.0237 64.9266 13.2709 64.9266 14.6099V15.9056H53.0086C53.3458 16.7047 53.8727 17.358 54.5892 17.8655C55.3058 18.373 56.1488 18.6268 57.1182 18.6268C57.8137 18.6268 58.446 18.5134 59.015 18.2866C59.584 18.0599 60.0688 17.7413 60.4692 17.331L63.8517 20.4085C62.798 21.3155 61.7179 21.9742 60.6114 22.3845ZM59.9002 12.2451H52.9138C53.1667 11.3812 53.5987 10.7117 54.2099 10.2366C54.8211 9.7615 55.5482 9.52394 56.3912 9.52394C57.2131 9.52394 57.9349 9.7723 58.5566 10.269C59.1783 10.7657 59.6262 11.4244 59.9002 12.2451Z" fill="#28283D"/>
</svg>